<mxfile host="app.diagrams.net" modified="2023-10-05T18:19:13.095Z" agent="Mozilla/5.0 (Windows NT 10.0; Win64; x64) AppleWebKit/537.36 (KHTML, like Gecko) Chrome/116.0.0.0 Safari/537.36 OPR/102.0.0.0 (Edition std-1)" version="21.7.1" etag="NQucKVeHhoY-SEYY5LEx" type="github">
  <diagram name="Page-1" id="mlqy6NxU03OyKlMlSbE0">
    <mxGraphModel>
      <root>
        <mxCell id="0" />
        <mxCell id="1" parent="0" />
      </root>
    </mxGraphModel>
  </diagram>
</mxfile>
